<svg id="svg" version="1.1" width="400" height="110.82251082251082" viewBox="0 0 400 110.82251082251082" xmlns="http://www.w3.org/2000/svg" xmlns:xlink="http://www.w3.org/1999/xlink" ><g id="svgg"><path id="path0" d="M281.000 0.250 C 281.000 0.451,280.741 0.500,279.667 0.500 C 278.356 0.500,278.333 0.507,278.333 0.917 C 278.333 1.250,278.250 1.333,277.917 1.333 C 277.583 1.333,277.500 1.417,277.500 1.750 C 277.500 2.083,277.417 2.167,277.083 2.167 C 276.750 2.167,276.667 2.250,276.667 2.583 C 276.667 2.917,276.583 3.000,276.250 3.000 C 275.898 3.000,275.833 3.078,275.833 3.500 C 275.833 3.922,275.769 4.000,275.417 4.000 C 275.010 4.000,275.000 4.029,275.000 5.239 C 275.000 6.467,274.996 6.478,274.542 6.531 L 274.083 6.583 274.038 9.542 L 273.992 12.500 274.496 12.500 C 274.996 12.500,275.000 12.508,275.000 13.417 C 275.000 14.283,275.023 14.333,275.417 14.333 C 275.750 14.333,275.833 14.417,275.833 14.750 C 275.833 15.083,275.917 15.167,276.250 15.167 C 276.583 15.167,276.667 15.250,276.667 15.583 C 276.667 15.917,276.750 16.000,277.083 16.000 C 277.417 16.000,277.500 16.083,277.500 16.417 C 277.500 16.750,277.583 16.833,277.917 16.833 C 278.250 16.833,278.333 16.917,278.333 17.250 C 278.333 17.644,278.383 17.667,279.250 17.667 C 280.157 17.667,280.167 17.672,280.167 18.167 L 280.167 18.667 283.583 18.667 L 287.000 18.667 287.000 18.167 C 287.000 17.678,287.019 17.667,287.833 17.667 C 288.611 17.667,288.667 17.639,288.667 17.250 C 288.667 16.898,288.744 16.833,289.167 16.833 C 289.589 16.833,289.667 16.769,289.667 16.417 C 289.667 16.083,289.750 16.000,290.083 16.000 C 290.417 16.000,290.500 15.917,290.500 15.583 C 290.500 15.250,290.583 15.167,290.917 15.167 C 291.250 15.167,291.333 15.083,291.333 14.750 C 291.333 14.417,291.417 14.333,291.750 14.333 C 292.160 14.333,292.167 14.311,292.167 13.000 C 292.167 11.689,292.174 11.667,292.583 11.667 L 293.000 11.667 293.000 9.083 L 293.000 6.500 292.583 6.500 C 292.194 6.500,292.167 6.444,292.167 5.667 C 292.167 4.889,292.139 4.833,291.750 4.833 C 291.356 4.833,291.333 4.783,291.333 3.917 C 291.333 3.050,291.311 3.000,290.917 3.000 C 290.583 3.000,290.500 2.917,290.500 2.583 C 290.500 2.250,290.417 2.167,290.083 2.167 C 289.750 2.167,289.667 2.083,289.667 1.750 C 289.667 1.356,289.617 1.333,288.750 1.333 C 287.883 1.333,287.833 1.311,287.833 0.917 C 287.833 0.528,287.778 0.500,287.000 0.500 C 286.370 0.500,286.167 0.439,286.167 0.250 C 286.167 0.039,285.769 0.000,283.583 0.000 C 281.398 0.000,281.000 0.039,281.000 0.250 M262.000 6.080 L 262.000 6.492 258.958 6.538 C 255.947 6.583,255.916 6.587,255.863 6.958 C 255.810 7.333,255.809 7.333,252.405 7.333 L 249.000 7.333 249.000 7.833 L 249.000 8.333 247.667 8.333 L 246.333 8.333 246.333 16.083 L 246.333 23.833 244.579 23.833 L 242.825 23.833 242.871 26.375 L 242.917 28.917 244.625 28.964 L 246.333 29.012 246.333 47.589 L 246.333 66.167 246.750 66.167 L 247.167 66.167 247.167 68.750 L 247.167 71.333 247.667 71.333 C 248.156 71.333,248.167 71.352,248.167 72.167 C 248.167 72.944,248.194 73.000,248.583 73.000 C 248.977 73.000,249.000 73.050,249.000 73.917 C 249.000 74.783,249.023 74.833,249.417 74.833 C 249.806 74.833,249.833 74.889,249.833 75.667 C 249.833 76.444,249.861 76.500,250.250 76.500 C 250.583 76.500,250.667 76.583,250.667 76.917 C 250.667 77.250,250.750 77.333,251.083 77.333 C 251.417 77.333,251.500 77.417,251.500 77.750 C 251.500 78.144,251.550 78.167,252.417 78.167 C 253.324 78.167,253.333 78.172,253.333 78.667 C 253.333 79.089,253.398 79.167,253.750 79.167 C 254.083 79.167,254.167 79.250,254.167 79.583 C 254.167 79.993,254.189 80.000,255.500 80.000 C 256.811 80.000,256.833 80.007,256.833 80.417 L 256.833 80.833 262.417 80.833 L 268.000 80.833 268.000 80.417 C 268.000 80.009,268.028 80.000,269.250 80.000 C 270.465 80.000,270.500 79.989,270.500 79.592 C 270.500 79.217,270.571 79.180,271.375 79.134 C 272.191 79.087,272.254 79.052,272.303 78.625 C 272.344 78.265,272.442 78.167,272.761 78.167 C 273.083 78.167,273.167 78.080,273.167 77.750 C 273.167 77.361,273.222 77.333,274.000 77.333 C 274.778 77.333,274.833 77.306,274.833 76.917 C 274.833 76.565,274.911 76.500,275.333 76.500 C 275.756 76.500,275.833 76.435,275.833 76.083 C 275.833 75.750,275.917 75.667,276.250 75.667 C 276.639 75.667,276.667 75.611,276.667 74.833 C 276.667 73.902,277.407 73.509,277.530 74.375 C 277.564 74.616,277.717 74.769,277.958 74.803 C 278.289 74.850,278.333 74.953,278.333 75.678 C 278.333 76.480,278.345 76.500,278.833 76.500 C 279.256 76.500,279.333 76.565,279.333 76.917 C 279.333 77.250,279.417 77.333,279.750 77.333 C 280.083 77.333,280.167 77.417,280.167 77.750 C 280.167 78.138,280.223 78.167,280.989 78.167 C 281.762 78.167,281.814 78.194,281.864 78.625 C 281.902 78.953,282.023 79.098,282.292 79.137 C 282.563 79.175,282.667 79.302,282.667 79.595 C 282.667 79.990,282.699 80.000,284.000 80.000 C 285.351 80.000,285.450 80.051,285.356 80.700 C 285.347 80.764,287.850 80.822,290.919 80.829 L 296.500 80.841 296.500 80.421 C 296.500 80.006,296.519 80.000,297.833 80.000 C 299.144 80.000,299.167 79.993,299.167 79.583 C 299.167 79.194,299.222 79.167,300.000 79.167 C 300.815 79.167,300.833 79.156,300.833 78.667 C 300.833 78.244,300.898 78.167,301.250 78.167 C 301.583 78.167,301.667 78.083,301.667 77.750 C 301.667 77.356,301.717 77.333,302.583 77.333 C 303.450 77.333,303.500 77.311,303.500 76.917 C 303.500 76.583,303.583 76.500,303.917 76.500 C 304.250 76.500,304.333 76.417,304.333 76.083 C 304.333 75.750,304.417 75.667,304.750 75.667 C 305.083 75.667,305.167 75.583,305.167 75.250 C 305.167 74.917,305.250 74.833,305.583 74.833 C 305.977 74.833,306.000 74.783,306.000 73.917 C 306.000 73.009,306.005 73.000,306.500 73.000 C 306.995 73.000,307.000 73.009,307.000 73.917 C 307.000 74.783,307.023 74.833,307.417 74.833 C 307.750 74.833,307.833 74.917,307.833 75.250 C 307.833 75.583,307.917 75.667,308.250 75.667 C 308.583 75.667,308.667 75.750,308.667 76.083 C 308.667 76.417,308.750 76.500,309.083 76.500 C 309.417 76.500,309.500 76.583,309.500 76.917 C 309.500 77.269,309.578 77.333,310.000 77.333 C 310.422 77.333,310.500 77.398,310.500 77.750 C 310.500 78.139,310.556 78.167,311.333 78.167 C 312.148 78.167,312.167 78.178,312.167 78.667 C 312.167 79.156,312.185 79.167,313.000 79.167 C 313.778 79.167,313.833 79.194,313.833 79.583 C 313.833 79.993,313.856 80.000,315.167 80.000 C 316.478 80.000,316.500 80.007,316.500 80.417 L 316.500 80.833 321.667 80.833 L 326.833 80.833 326.833 80.417 C 326.833 80.007,326.856 80.000,328.167 80.000 C 329.478 80.000,329.500 79.993,329.500 79.583 C 329.500 79.194,329.556 79.167,330.333 79.167 C 331.148 79.167,331.167 79.156,331.167 78.667 C 331.167 78.244,331.231 78.167,331.583 78.167 C 331.917 78.167,332.000 78.083,332.000 77.750 C 332.000 77.356,332.050 77.333,332.917 77.333 C 333.783 77.333,333.833 77.311,333.833 76.917 C 333.833 76.583,333.917 76.500,334.250 76.500 C 334.583 76.500,334.667 76.417,334.667 76.083 C 334.667 75.750,334.750 75.667,335.083 75.667 C 335.417 75.667,335.500 75.583,335.500 75.250 C 335.500 74.917,335.583 74.833,335.917 74.833 C 336.250 74.833,336.333 74.750,336.333 74.417 C 336.333 74.083,336.417 74.000,336.750 74.000 C 337.144 74.000,337.167 73.950,337.167 73.083 C 337.167 72.176,337.172 72.167,337.667 72.167 C 338.089 72.167,338.167 72.102,338.167 71.750 C 338.167 71.417,338.250 71.333,338.583 71.333 C 338.972 71.333,339.000 71.278,339.000 70.500 C 339.000 69.722,339.028 69.667,339.417 69.667 C 339.811 69.667,339.833 69.617,339.833 68.750 C 339.833 67.883,339.856 67.833,340.250 67.833 C 340.639 67.833,340.667 67.778,340.667 67.000 C 340.667 66.222,340.694 66.167,341.083 66.167 C 341.493 66.167,341.500 66.144,341.500 64.833 L 341.500 63.500 342.000 63.500 L 342.500 63.500 342.500 62.262 C 342.500 61.104,342.525 61.020,342.875 60.970 C 343.239 60.918,343.251 60.852,343.297 58.792 L 343.343 56.667 343.755 56.667 L 344.167 56.667 344.167 53.583 L 344.167 50.500 344.583 50.500 L 345.000 50.500 345.000 42.750 L 345.000 35.000 344.583 35.000 L 344.167 35.000 344.167 32.833 L 344.167 30.667 343.750 30.667 C 343.343 30.667,343.333 30.639,343.333 29.417 C 343.333 28.194,343.324 28.167,342.917 28.167 C 342.528 28.167,342.500 28.111,342.500 27.333 C 342.500 26.519,342.489 26.500,342.000 26.500 C 341.505 26.500,341.500 26.491,341.500 25.583 C 341.500 24.717,341.477 24.667,341.083 24.667 C 340.750 24.667,340.667 24.583,340.667 24.250 C 340.667 23.917,340.583 23.833,340.250 23.833 C 339.917 23.833,339.833 23.750,339.833 23.417 C 339.833 23.083,339.750 23.000,339.417 23.000 C 339.083 23.000,339.000 22.917,339.000 22.583 C 339.000 22.189,338.950 22.167,338.083 22.167 C 337.174 22.167,337.167 22.162,337.167 21.663 L 337.167 21.159 334.208 21.204 L 331.250 21.250 331.197 21.708 C 331.148 22.139,331.095 22.167,330.322 22.167 C 329.556 22.167,329.500 22.195,329.500 22.583 C 329.500 22.917,329.417 23.000,329.083 23.000 C 328.750 23.000,328.667 23.083,328.667 23.417 C 328.667 23.750,328.583 23.833,328.250 23.833 L 327.833 23.833 327.833 26.833 L 327.833 29.833 328.250 29.833 C 328.639 29.833,328.667 29.889,328.667 30.667 C 328.667 31.444,328.694 31.500,329.083 31.500 C 329.435 31.500,329.500 31.578,329.500 32.000 C 329.500 32.422,329.565 32.500,329.917 32.500 C 330.250 32.500,330.333 32.583,330.333 32.917 C 330.333 33.250,330.417 33.333,330.750 33.333 C 331.083 33.333,331.167 33.417,331.167 33.750 L 331.167 34.167 333.739 34.167 L 336.311 34.167 336.381 33.708 C 336.419 33.456,336.461 33.831,336.475 34.542 C 336.499 35.802,336.510 35.833,336.917 35.833 L 337.333 35.833 337.333 42.333 L 337.333 48.833 336.917 48.833 L 336.500 48.833 336.500 51.500 L 336.500 54.167 336.000 54.167 L 335.500 54.167 335.500 55.833 L 335.500 57.500 335.083 57.500 C 334.674 57.500,334.667 57.522,334.667 58.833 C 334.667 60.144,334.660 60.167,334.250 60.167 C 333.861 60.167,333.833 60.222,333.833 61.000 C 333.833 61.778,333.806 61.833,333.417 61.833 C 333.023 61.833,333.000 61.883,333.000 62.750 C 333.000 63.617,332.977 63.667,332.583 63.667 C 332.194 63.667,332.167 63.722,332.167 64.500 C 332.167 65.315,332.156 65.333,331.667 65.333 C 331.244 65.333,331.167 65.398,331.167 65.750 C 331.167 66.083,331.083 66.167,330.750 66.167 C 330.417 66.167,330.333 66.250,330.333 66.583 C 330.333 66.917,330.250 67.000,329.917 67.000 C 329.565 67.000,329.500 67.078,329.500 67.500 C 329.500 67.989,329.481 68.000,328.667 68.000 C 327.889 68.000,327.833 68.028,327.833 68.417 L 327.833 68.833 325.583 68.833 L 323.333 68.833 323.333 68.417 C 323.333 68.083,323.250 68.000,322.917 68.000 C 322.565 68.000,322.500 67.922,322.500 67.500 C 322.500 67.078,322.435 67.000,322.083 67.000 L 321.667 67.000 321.667 65.333 L 321.667 63.667 321.250 63.667 L 320.833 63.667 320.833 43.750 L 320.833 23.833 312.583 23.833 L 304.333 23.833 304.333 44.167 L 304.333 64.500 303.917 64.500 C 303.583 64.500,303.500 64.583,303.500 64.917 C 303.500 65.298,303.284 65.431,302.792 65.353 C 302.723 65.342,302.676 65.390,302.686 65.458 C 302.827 66.347,302.642 67.000,302.250 67.000 C 301.898 67.000,301.833 67.078,301.833 67.500 C 301.833 67.995,301.824 68.000,300.917 68.000 C 300.050 68.000,300.000 68.023,300.000 68.417 L 300.000 68.833 297.417 68.833 L 294.833 68.833 294.833 68.417 C 294.833 68.086,294.749 68.000,294.428 68.000 C 294.109 68.000,294.011 67.902,293.969 67.542 C 293.928 67.182,293.818 67.072,293.458 67.031 C 293.004 66.978,293.000 66.967,293.000 65.739 C 293.000 64.529,292.990 64.500,292.583 64.500 L 292.167 64.500 292.167 44.167 L 292.167 23.833 283.583 23.833 L 275.000 23.833 275.000 44.583 L 275.000 65.333 274.500 65.333 C 274.012 65.333,274.000 65.353,274.000 66.155 C 274.000 66.880,273.956 66.983,273.625 67.030 C 273.356 67.068,273.235 67.213,273.197 67.542 C 273.148 67.973,273.095 68.000,272.322 68.000 C 271.556 68.000,271.500 68.029,271.500 68.417 L 271.500 68.833 268.833 68.833 L 266.167 68.833 266.167 68.417 C 266.167 68.083,266.083 68.000,265.750 68.000 C 265.398 68.000,265.333 67.922,265.333 67.500 C 265.333 67.078,265.269 67.000,264.917 67.000 C 264.528 67.000,264.500 66.944,264.500 66.167 C 264.500 65.389,264.472 65.333,264.083 65.333 L 263.667 65.333 263.667 47.167 L 263.667 29.000 267.083 29.000 L 270.500 29.000 270.500 26.417 L 270.500 23.833 267.083 23.833 L 263.667 23.833 263.667 14.750 L 263.667 5.667 262.833 5.667 C 262.058 5.667,262.000 5.695,262.000 6.080 M195.333 43.250 L 195.333 67.000 194.917 67.000 C 194.565 67.000,194.500 67.078,194.500 67.500 C 194.500 67.995,194.491 68.000,193.583 68.000 C 192.717 68.000,192.667 68.023,192.667 68.417 L 192.667 68.833 190.083 68.833 L 187.500 68.833 187.500 68.417 C 187.500 68.065,187.422 68.000,187.000 68.000 C 186.556 68.000,186.500 67.944,186.500 67.500 C 186.500 67.078,186.435 67.000,186.083 67.000 C 185.676 67.000,185.667 66.972,185.667 65.750 C 185.667 64.528,185.657 64.500,185.250 64.500 L 184.833 64.500 184.833 44.167 L 184.833 23.833 176.250 23.833 L 167.667 23.833 167.635 25.625 C 167.617 26.679,167.579 27.022,167.544 26.458 C 167.488 25.569,167.454 25.500,167.075 25.500 C 166.751 25.500,166.667 25.414,166.667 25.083 C 166.667 24.694,166.611 24.667,165.833 24.667 C 165.056 24.667,165.000 24.639,165.000 24.250 C 165.000 23.856,164.950 23.833,164.083 23.833 C 163.217 23.833,163.167 23.811,163.167 23.417 L 163.167 23.000 158.417 23.000 L 153.667 23.000 153.667 23.417 L 153.667 23.833 152.000 23.833 L 150.333 23.833 150.333 24.250 C 150.333 24.602,150.256 24.667,149.833 24.667 C 149.411 24.667,149.333 24.731,149.333 25.083 C 149.333 25.472,149.278 25.500,148.500 25.500 C 147.685 25.500,147.667 25.511,147.667 26.000 C 147.667 26.422,147.602 26.500,147.250 26.500 C 146.917 26.500,146.833 26.583,146.833 26.917 C 146.833 27.250,146.750 27.333,146.417 27.333 C 146.083 27.333,146.000 27.417,146.000 27.750 C 146.000 28.102,145.922 28.167,145.500 28.167 C 145.078 28.167,145.000 28.231,145.000 28.583 C 145.000 28.917,144.917 29.000,144.583 29.000 C 144.250 29.000,144.167 29.083,144.167 29.417 C 144.167 29.750,144.083 29.833,143.750 29.833 C 143.417 29.833,143.333 29.917,143.333 30.250 C 143.333 30.583,143.250 30.667,142.917 30.667 C 142.565 30.667,142.500 30.744,142.500 31.167 C 142.500 31.589,142.435 31.667,142.083 31.667 C 141.694 31.667,141.667 31.722,141.667 32.500 C 141.667 33.315,141.656 33.333,141.167 33.333 C 140.679 33.333,140.667 33.353,140.667 34.155 C 140.667 34.880,140.623 34.983,140.292 35.030 C 139.965 35.076,139.910 35.196,139.866 35.958 C 139.820 36.762,139.783 36.833,139.408 36.833 C 139.011 36.833,139.000 36.868,139.000 38.083 C 139.000 39.306,138.991 39.333,138.583 39.333 C 138.174 39.333,138.167 39.356,138.167 40.667 C 138.167 41.978,138.160 42.000,137.750 42.000 L 137.333 42.000 137.333 44.167 L 137.333 46.333 136.917 46.333 L 136.500 46.333 136.500 51.923 C 136.500 57.856,136.591 58.500,137.430 58.500 C 137.853 58.500,141.333 61.635,141.333 62.017 C 141.333 62.085,141.511 62.353,141.727 62.612 C 141.944 62.871,142.179 63.269,142.251 63.497 C 142.322 63.724,142.514 64.099,142.679 64.330 C 143.659 65.709,143.645 71.248,142.657 73.185 C 142.140 74.199,142.269 75.663,142.875 75.665 C 143.252 75.666,143.333 75.740,143.333 76.083 C 143.333 76.417,143.417 76.500,143.750 76.500 C 144.083 76.500,144.167 76.583,144.167 76.917 C 144.167 77.311,144.217 77.333,145.083 77.333 C 145.950 77.333,146.000 77.356,146.000 77.750 C 146.000 78.083,146.083 78.167,146.417 78.167 C 146.769 78.167,146.833 78.244,146.833 78.667 C 146.833 79.156,146.852 79.167,147.667 79.167 C 148.444 79.167,148.500 79.194,148.500 79.583 C 148.500 79.993,148.522 80.000,149.833 80.000 C 151.144 80.000,151.167 80.007,151.167 80.417 L 151.167 80.833 155.917 80.833 L 160.667 80.833 160.667 80.417 C 160.667 80.009,160.694 80.000,161.917 80.000 C 163.132 80.000,163.167 79.989,163.167 79.592 C 163.167 79.217,163.238 79.180,164.042 79.134 C 164.858 79.087,164.920 79.052,164.969 78.625 C 165.011 78.265,165.109 78.167,165.428 78.167 C 165.749 78.167,165.833 78.080,165.833 77.750 C 165.833 77.417,165.917 77.333,166.250 77.333 C 166.583 77.333,166.667 77.250,166.667 76.917 C 166.667 76.583,166.750 76.500,167.083 76.500 C 167.417 76.500,167.500 76.417,167.500 76.083 C 167.500 75.750,167.583 75.667,167.917 75.667 C 168.247 75.667,168.333 75.583,168.333 75.261 C 168.333 74.942,168.432 74.844,168.792 74.803 C 169.219 74.754,169.253 74.691,169.300 73.875 C 169.347 73.071,169.384 73.000,169.759 73.000 C 170.083 73.000,170.167 72.914,170.167 72.583 C 170.167 71.624,170.976 72.052,171.033 73.042 C 171.077 73.804,171.132 73.924,171.458 73.970 C 171.789 74.017,171.833 74.120,171.833 74.845 C 171.833 75.647,171.845 75.667,172.333 75.667 C 172.756 75.667,172.833 75.731,172.833 76.083 C 172.833 76.417,172.917 76.500,173.250 76.500 C 173.583 76.500,173.667 76.583,173.667 76.917 C 173.667 77.250,173.750 77.333,174.083 77.333 C 174.417 77.333,174.500 77.417,174.500 77.750 C 174.500 78.080,174.584 78.167,174.906 78.167 C 175.224 78.167,175.323 78.265,175.364 78.625 C 175.402 78.953,175.523 79.098,175.792 79.137 C 176.063 79.175,176.167 79.302,176.167 79.595 C 176.167 79.990,176.199 80.000,177.500 80.000 C 178.811 80.000,178.833 80.007,178.833 80.417 L 178.833 80.833 184.000 80.833 L 189.167 80.833 189.167 80.417 C 189.167 80.007,189.189 80.000,190.500 80.000 C 191.811 80.000,191.833 79.993,191.833 79.583 C 191.833 79.194,191.889 79.167,192.667 79.167 C 193.481 79.167,193.500 79.156,193.500 78.667 C 193.500 78.244,193.565 78.167,193.917 78.167 C 194.250 78.167,194.333 78.083,194.333 77.750 C 194.333 77.398,194.411 77.333,194.833 77.333 L 195.333 77.333 195.333 92.500 L 195.333 107.667 197.917 107.667 L 200.500 107.667 200.500 107.250 L 200.500 106.833 202.167 106.833 L 203.833 106.833 203.833 106.333 L 203.833 105.833 205.583 105.833 L 207.333 105.833 207.333 105.417 L 207.333 105.000 209.083 105.000 L 210.833 105.000 210.833 104.583 C 210.833 104.194,210.889 104.167,211.667 104.167 L 212.500 104.167 212.525 90.708 C 212.539 83.306,212.581 77.456,212.619 77.708 C 212.673 78.064,212.780 78.167,213.094 78.167 C 213.434 78.167,213.500 78.248,213.500 78.667 C 213.500 79.156,213.519 79.167,214.333 79.167 C 215.111 79.167,215.167 79.194,215.167 79.583 C 215.167 79.977,215.217 80.000,216.083 80.000 C 216.950 80.000,217.000 80.023,217.000 80.417 L 217.000 80.833 222.583 80.833 L 228.167 80.833 228.167 80.417 C 228.167 80.009,228.194 80.000,229.417 80.000 C 230.632 80.000,230.667 79.989,230.667 79.592 C 230.667 79.217,230.738 79.180,231.542 79.134 C 232.358 79.087,232.420 79.052,232.469 78.625 C 232.511 78.265,232.609 78.167,232.928 78.167 C 233.249 78.167,233.333 78.080,233.333 77.750 C 233.333 77.361,233.389 77.333,234.167 77.333 C 234.944 77.333,235.000 77.306,235.000 76.917 C 235.000 76.565,235.078 76.500,235.500 76.500 C 235.922 76.500,236.000 76.435,236.000 76.083 C 236.000 75.750,236.083 75.667,236.417 75.667 C 236.750 75.667,236.833 75.583,236.833 75.250 C 236.833 74.917,236.917 74.833,237.250 74.833 C 237.644 74.833,237.667 74.783,237.667 73.917 C 237.667 73.050,237.689 73.000,238.083 73.000 C 238.417 73.000,238.500 72.917,238.500 72.583 C 238.500 72.250,238.583 72.167,238.917 72.167 C 239.305 72.167,239.333 72.110,239.333 71.344 C 239.333 70.571,239.361 70.519,239.792 70.469 C 240.219 70.420,240.253 70.358,240.300 69.542 C 240.347 68.738,240.384 68.667,240.759 68.667 C 241.155 68.667,241.167 68.632,241.167 67.417 C 241.167 66.194,241.176 66.167,241.583 66.167 L 242.000 66.167 242.000 64.417 L 242.000 62.667 242.417 62.667 L 242.833 62.667 242.833 59.667 L 242.833 56.667 243.250 56.667 L 243.667 56.667 243.667 50.583 L 243.667 44.500 243.250 44.500 L 242.833 44.500 242.833 41.917 L 242.833 39.333 242.417 39.333 L 242.000 39.333 242.000 37.667 C 242.000 36.009,241.998 36.000,241.592 36.000 C 241.217 36.000,241.180 35.929,241.134 35.125 C 241.090 34.363,241.035 34.243,240.708 34.197 C 240.377 34.150,240.333 34.047,240.333 33.322 C 240.333 32.520,240.321 32.500,239.833 32.500 C 239.338 32.500,239.333 32.491,239.333 31.583 C 239.333 30.717,239.311 30.667,238.917 30.667 C 238.583 30.667,238.500 30.583,238.500 30.250 C 238.500 29.917,238.417 29.833,238.083 29.833 C 237.694 29.833,237.667 29.778,237.667 29.000 C 237.667 28.222,237.639 28.167,237.250 28.167 C 236.917 28.167,236.833 28.083,236.833 27.750 C 236.833 27.417,236.750 27.333,236.417 27.333 C 236.023 27.333,235.925 27.191,235.988 26.708 C 236.006 26.563,235.733 26.500,235.091 26.500 C 234.175 26.500,234.167 26.495,234.167 26.000 C 234.167 25.578,234.102 25.500,233.750 25.500 C 233.417 25.500,233.333 25.417,233.333 25.083 C 233.333 24.694,233.278 24.667,232.500 24.667 C 231.722 24.667,231.667 24.639,231.667 24.250 L 231.667 23.833 229.917 23.833 L 228.167 23.833 228.167 23.417 L 228.167 23.000 223.833 23.000 L 219.500 23.000 219.500 23.417 C 219.500 23.824,219.472 23.833,218.250 23.833 C 217.028 23.833,217.000 23.843,217.000 24.250 C 217.000 24.644,216.950 24.667,216.083 24.667 C 215.217 24.667,215.167 24.689,215.167 25.083 C 215.167 25.472,215.111 25.500,214.333 25.500 C 213.519 25.500,213.500 25.511,213.500 26.000 C 213.500 26.419,213.434 26.500,213.094 26.500 C 212.780 26.500,212.673 26.603,212.619 26.958 C 212.581 27.210,212.539 25.635,212.525 23.458 L 212.500 19.500 203.917 19.500 L 195.333 19.500 195.333 43.250 M365.833 23.417 C 365.833 23.824,365.806 23.833,364.583 23.833 C 363.361 23.833,363.333 23.843,363.333 24.250 C 363.333 24.660,363.311 24.667,362.000 24.667 C 360.689 24.667,360.667 24.674,360.667 25.083 C 360.667 25.417,360.583 25.500,360.250 25.500 C 359.898 25.500,359.833 25.578,359.833 26.000 C 359.833 26.495,359.824 26.500,358.917 26.500 C 358.050 26.500,358.000 26.523,358.000 26.917 C 358.000 27.250,357.917 27.333,357.583 27.333 C 357.250 27.333,357.167 27.417,357.167 27.750 C 357.167 28.083,357.083 28.167,356.750 28.167 C 356.417 28.167,356.333 28.250,356.333 28.583 C 356.333 28.917,356.250 29.000,355.917 29.000 C 355.583 29.000,355.500 29.083,355.500 29.417 C 355.500 29.750,355.417 29.833,355.083 29.833 C 354.753 29.833,354.667 29.917,354.667 30.239 C 354.667 30.558,354.568 30.656,354.208 30.697 C 353.781 30.746,353.747 30.809,353.700 31.625 C 353.653 32.429,353.616 32.500,353.241 32.500 C 352.917 32.500,352.833 32.586,352.833 32.917 C 352.833 33.250,352.750 33.333,352.417 33.333 C 352.028 33.333,352.000 33.389,352.000 34.167 C 352.000 34.944,351.972 35.000,351.583 35.000 C 351.189 35.000,351.167 35.050,351.167 35.917 C 351.167 36.783,351.144 36.833,350.750 36.833 C 350.361 36.833,350.333 36.889,350.333 37.667 C 350.333 38.481,350.322 38.500,349.833 38.500 L 349.333 38.500 349.333 39.833 C 349.333 41.144,349.326 41.167,348.917 41.167 L 348.500 41.167 348.500 43.333 L 348.500 45.500 348.083 45.500 L 347.667 45.500 347.667 54.917 L 347.667 64.333 348.083 64.333 C 348.493 64.333,348.500 64.356,348.500 65.667 C 348.500 66.972,348.509 67.000,348.910 67.000 C 349.305 67.000,349.321 67.044,349.368 68.292 C 349.416 69.563,349.424 69.584,349.875 69.636 C 350.306 69.686,350.333 69.738,350.333 70.511 C 350.333 71.277,350.362 71.333,350.750 71.333 C 351.083 71.333,351.167 71.417,351.167 71.750 C 351.167 72.083,351.250 72.167,351.583 72.167 C 351.977 72.167,352.000 72.217,352.000 73.083 C 352.000 73.943,352.025 74.000,352.405 74.000 C 352.698 74.000,352.825 74.104,352.863 74.375 C 352.898 74.616,353.051 74.769,353.292 74.803 C 353.563 74.842,353.667 74.968,353.667 75.262 C 353.667 75.601,353.748 75.667,354.167 75.667 C 354.589 75.667,354.667 75.731,354.667 76.083 C 354.667 76.417,354.750 76.500,355.083 76.500 C 355.417 76.500,355.500 76.583,355.500 76.917 C 355.500 77.306,355.556 77.333,356.333 77.333 C 357.111 77.333,357.167 77.361,357.167 77.750 C 357.167 78.144,357.217 78.167,358.083 78.167 C 358.991 78.167,359.000 78.172,359.000 78.667 C 359.000 79.156,359.019 79.167,359.833 79.167 C 360.611 79.167,360.667 79.194,360.667 79.583 L 360.667 80.000 362.417 80.000 L 364.167 80.000 364.167 80.417 L 364.167 80.833 370.167 80.833 L 376.167 80.833 376.167 80.417 C 376.167 80.007,376.189 80.000,377.500 80.000 C 378.811 80.000,378.833 79.993,378.833 79.583 C 378.833 79.176,378.861 79.167,380.083 79.167 L 381.333 79.167 381.333 78.667 C 381.333 78.172,381.343 78.167,382.250 78.167 C 383.117 78.167,383.167 78.144,383.167 77.750 C 383.167 77.417,383.250 77.333,383.583 77.333 C 383.917 77.333,384.000 77.250,384.000 76.917 C 384.000 76.528,384.056 76.500,384.833 76.500 C 385.611 76.500,385.667 76.472,385.667 76.083 C 385.667 75.750,385.750 75.667,386.083 75.667 C 386.414 75.667,386.500 75.583,386.500 75.261 C 386.500 74.942,386.598 74.844,386.958 74.803 C 387.287 74.765,387.432 74.644,387.470 74.375 C 387.508 74.104,387.635 74.000,387.928 74.000 C 388.267 74.000,388.333 73.918,388.333 73.500 C 388.333 73.078,388.398 73.000,388.750 73.000 C 389.083 73.000,389.167 72.917,389.167 72.583 C 389.167 72.250,389.250 72.167,389.583 72.167 C 389.917 72.167,390.000 72.083,390.000 71.750 C 390.000 71.417,390.083 71.333,390.417 71.333 C 390.747 71.333,390.833 71.249,390.833 70.928 C 390.833 70.609,390.932 70.511,391.292 70.469 C 391.719 70.420,391.753 70.358,391.800 69.542 C 391.847 68.738,391.884 68.667,392.259 68.667 C 392.583 68.667,392.667 68.581,392.667 68.250 C 392.667 67.917,392.750 67.833,393.083 67.833 C 393.472 67.833,393.500 67.778,393.500 67.000 C 393.500 66.222,393.528 66.167,393.917 66.167 C 394.311 66.167,394.333 66.117,394.333 65.250 C 394.333 64.383,394.356 64.333,394.750 64.333 C 395.139 64.333,395.167 64.278,395.167 63.500 C 395.167 62.685,395.178 62.667,395.667 62.667 L 396.167 62.667 396.167 61.000 L 396.167 59.333 394.000 59.333 L 391.833 59.333 391.833 59.750 C 391.833 60.083,391.750 60.167,391.417 60.167 C 391.083 60.167,391.000 60.250,391.000 60.583 C 391.000 60.917,390.917 61.000,390.583 61.000 C 390.195 61.000,390.167 61.056,390.167 61.822 C 390.167 62.595,390.139 62.648,389.708 62.697 C 389.348 62.739,389.239 62.848,389.197 63.208 C 389.156 63.568,389.058 63.667,388.739 63.667 C 388.417 63.667,388.333 63.753,388.333 64.083 C 388.333 64.417,388.250 64.500,387.917 64.500 C 387.583 64.500,387.500 64.583,387.500 64.917 C 387.500 65.250,387.417 65.333,387.083 65.333 C 386.750 65.333,386.667 65.417,386.667 65.750 C 386.667 66.083,386.583 66.167,386.250 66.167 C 385.920 66.167,385.833 66.251,385.833 66.572 C 385.833 66.891,385.735 66.989,385.375 67.031 C 385.015 67.072,384.905 67.182,384.864 67.542 C 384.814 67.973,384.762 68.000,383.989 68.000 C 383.223 68.000,383.167 68.029,383.167 68.417 C 383.167 68.806,383.111 68.833,382.333 68.833 C 381.556 68.833,381.500 68.861,381.500 69.250 C 381.500 69.660,381.478 69.667,380.167 69.667 C 378.856 69.667,378.833 69.674,378.833 70.083 L 378.833 70.500 374.917 70.500 L 371.000 70.500 371.000 70.083 C 371.000 69.694,370.944 69.667,370.167 69.667 C 369.389 69.667,369.333 69.639,369.333 69.250 C 369.333 68.898,369.256 68.833,368.833 68.833 C 368.411 68.833,368.333 68.769,368.333 68.417 C 368.333 68.083,368.250 68.000,367.917 68.000 C 367.565 68.000,367.500 67.922,367.500 67.500 C 367.500 67.078,367.435 67.000,367.083 67.000 C 366.750 67.000,366.667 66.917,366.667 66.583 C 366.667 66.250,366.583 66.167,366.250 66.167 C 365.843 66.167,365.833 66.139,365.833 64.917 C 365.833 63.694,365.824 63.667,365.417 63.667 L 365.000 63.667 365.000 60.583 L 365.000 57.500 367.167 57.500 L 369.333 57.500 369.333 57.083 L 369.333 56.667 371.000 56.667 C 372.657 56.667,372.667 56.664,372.667 56.259 C 372.667 55.884,372.738 55.847,373.542 55.800 C 374.358 55.753,374.420 55.719,374.469 55.292 C 374.519 54.861,374.571 54.833,375.344 54.833 C 376.110 54.833,376.167 54.805,376.167 54.417 C 376.167 54.023,376.217 54.000,377.083 54.000 C 377.950 54.000,378.000 53.977,378.000 53.583 C 378.000 53.250,378.083 53.167,378.417 53.167 C 378.750 53.167,378.833 53.083,378.833 52.750 C 378.833 52.417,378.917 52.333,379.250 52.333 C 379.583 52.333,379.667 52.250,379.667 51.917 C 379.667 51.583,379.750 51.500,380.083 51.500 C 380.435 51.500,380.500 51.422,380.500 51.000 C 380.500 50.578,380.565 50.500,380.917 50.500 C 381.250 50.500,381.333 50.417,381.333 50.083 C 381.333 49.731,381.411 49.667,381.833 49.667 C 382.256 49.667,382.333 49.602,382.333 49.250 C 382.333 48.917,382.417 48.833,382.750 48.833 C 383.083 48.833,383.167 48.750,383.167 48.417 C 383.167 48.083,383.250 48.000,383.583 48.000 C 383.972 48.000,384.000 47.944,384.000 47.167 C 384.000 46.389,384.028 46.333,384.417 46.333 C 384.811 46.333,384.833 46.283,384.833 45.417 C 384.833 44.550,384.856 44.500,385.250 44.500 L 385.667 44.500 385.667 42.750 L 385.667 41.000 386.083 41.000 L 386.500 41.000 386.500 36.750 L 386.500 32.500 386.083 32.500 C 385.674 32.500,385.667 32.478,385.667 31.167 C 385.667 29.856,385.660 29.833,385.250 29.833 C 384.861 29.833,384.833 29.778,384.833 29.000 C 384.833 28.222,384.806 28.167,384.417 28.167 C 384.083 28.167,384.000 28.083,384.000 27.750 C 384.000 27.417,383.917 27.333,383.583 27.333 C 383.250 27.333,383.167 27.250,383.167 26.917 C 383.167 26.586,383.083 26.500,382.761 26.500 C 382.442 26.500,382.344 26.402,382.303 26.042 C 382.254 25.614,382.191 25.580,381.375 25.533 C 380.571 25.487,380.500 25.449,380.500 25.075 C 380.500 24.751,380.414 24.667,380.083 24.667 C 379.750 24.667,379.667 24.583,379.667 24.250 L 379.667 23.833 377.917 23.833 L 376.167 23.833 376.167 23.417 L 376.167 23.000 371.000 23.000 L 365.833 23.000 365.833 23.417 M24.667 24.250 L 24.667 24.667 23.000 24.667 C 21.343 24.667,21.333 24.669,21.333 25.075 C 21.333 25.449,21.262 25.487,20.458 25.533 C 19.642 25.580,19.580 25.614,19.531 26.042 C 19.489 26.402,19.391 26.500,19.072 26.500 C 18.751 26.500,18.667 26.586,18.667 26.917 C 18.667 27.306,18.611 27.333,17.833 27.333 C 17.056 27.333,17.000 27.361,17.000 27.750 C 17.000 28.102,16.922 28.167,16.500 28.167 C 16.078 28.167,16.000 28.231,16.000 28.583 C 16.000 28.917,15.917 29.000,15.583 29.000 C 15.250 29.000,15.167 29.083,15.167 29.417 C 15.167 29.750,15.083 29.833,14.750 29.833 C 14.417 29.833,14.333 29.917,14.333 30.250 C 14.333 30.583,14.250 30.667,13.917 30.667 C 13.565 30.667,13.500 30.744,13.500 31.167 C 13.500 31.589,13.435 31.667,13.083 31.667 C 12.694 31.667,12.667 31.722,12.667 32.500 C 12.667 33.315,12.656 33.333,12.167 33.333 C 11.748 33.333,11.667 33.399,11.667 33.738 C 11.667 34.032,11.563 34.158,11.292 34.197 C 10.965 34.243,10.910 34.363,10.866 35.125 C 10.820 35.929,10.783 36.000,10.408 36.000 C 10.030 36.000,10.000 36.060,10.000 36.833 C 10.000 37.611,9.972 37.667,9.583 37.667 C 9.174 37.667,9.167 37.689,9.167 39.000 C 9.167 40.311,9.160 40.333,8.750 40.333 C 8.343 40.333,8.333 40.361,8.333 41.583 L 8.333 42.833 7.838 42.833 L 7.342 42.833 7.296 45.458 C 7.252 47.957,7.234 48.083,6.917 48.083 C 6.589 48.083,6.583 48.209,6.540 55.375 L 6.496 62.667 6.915 62.667 L 7.333 62.667 7.333 64.833 L 7.333 67.000 7.833 67.000 L 8.333 67.000 8.333 68.333 C 8.333 69.644,8.340 69.667,8.750 69.667 C 9.139 69.667,9.167 69.722,9.167 70.500 C 9.167 71.278,9.194 71.333,9.583 71.333 C 9.972 71.333,10.000 71.389,10.000 72.167 C 10.000 72.938,10.030 73.000,10.406 73.000 C 10.724 73.000,10.823 73.098,10.864 73.458 C 10.902 73.787,11.023 73.932,11.292 73.970 C 11.623 74.017,11.667 74.120,11.667 74.845 C 11.667 75.647,11.679 75.667,12.167 75.667 C 12.589 75.667,12.667 75.731,12.667 76.083 C 12.667 76.417,12.750 76.500,13.083 76.500 C 13.417 76.500,13.500 76.583,13.500 76.917 C 13.500 77.306,13.556 77.333,14.333 77.333 C 15.111 77.333,15.167 77.361,15.167 77.750 C 15.167 78.080,15.251 78.167,15.572 78.167 C 15.891 78.167,15.989 78.265,16.031 78.625 C 16.080 79.052,16.142 79.087,16.958 79.134 C 17.762 79.180,17.833 79.217,17.833 79.592 C 17.833 79.970,17.894 80.000,18.667 80.000 C 19.444 80.000,19.500 80.028,19.500 80.417 L 19.500 80.833 21.250 80.833 L 23.000 80.833 23.000 81.250 L 23.000 81.667 29.000 81.667 L 35.000 81.667 35.000 81.250 L 35.000 80.833 36.750 80.833 L 38.500 80.833 38.500 80.417 C 38.500 80.023,38.550 80.000,39.417 80.000 C 40.283 80.000,40.333 79.977,40.333 79.583 C 40.333 79.194,40.389 79.167,41.167 79.167 C 41.981 79.167,42.000 79.156,42.000 78.667 C 42.000 78.178,42.019 78.167,42.833 78.167 C 43.611 78.167,43.667 78.139,43.667 77.750 C 43.667 77.398,43.744 77.333,44.167 77.333 C 44.589 77.333,44.667 77.269,44.667 76.917 C 44.667 76.528,44.722 76.500,45.500 76.500 C 46.278 76.500,46.333 76.472,46.333 76.083 C 46.333 75.750,46.417 75.667,46.750 75.667 C 47.083 75.667,47.167 75.583,47.167 75.250 C 47.167 74.917,47.250 74.833,47.583 74.833 C 47.914 74.833,48.000 74.749,48.000 74.428 C 48.000 74.109,48.098 74.011,48.458 73.969 C 48.818 73.928,48.928 73.818,48.969 73.458 C 49.011 73.098,49.109 73.000,49.428 73.000 L 49.833 73.000 49.833 76.917 L 49.833 80.833 58.500 80.833 L 67.167 80.833 67.167 59.667 L 67.167 38.500 67.583 38.500 C 67.917 38.500,68.000 38.417,68.000 38.083 C 68.000 37.750,68.083 37.667,68.417 37.667 C 68.769 37.667,68.833 37.589,68.833 37.167 C 68.833 36.744,68.898 36.667,69.250 36.667 C 69.583 36.667,69.667 36.583,69.667 36.250 C 69.667 35.917,69.750 35.833,70.083 35.833 C 70.417 35.833,70.500 35.750,70.500 35.417 C 70.500 35.023,70.550 35.000,71.417 35.000 C 72.283 35.000,72.333 34.977,72.333 34.583 C 72.333 34.194,72.389 34.167,73.167 34.167 C 73.944 34.167,74.000 34.194,74.000 34.583 C 74.000 34.935,74.078 35.000,74.500 35.000 C 74.922 35.000,75.000 35.065,75.000 35.417 C 75.000 35.750,75.083 35.833,75.417 35.833 C 75.826 35.833,75.833 35.856,75.833 37.167 C 75.833 38.478,75.840 38.500,76.250 38.500 C 76.583 38.500,76.667 38.583,76.667 38.917 C 76.667 39.250,76.750 39.333,77.083 39.333 C 77.417 39.333,77.500 39.417,77.500 39.750 C 77.500 40.083,77.583 40.167,77.917 40.167 C 78.250 40.167,78.333 40.250,78.333 40.583 L 78.333 41.000 81.833 41.000 L 85.333 41.000 85.333 40.583 C 85.333 40.194,85.389 40.167,86.167 40.167 C 86.944 40.167,87.000 40.139,87.000 39.750 C 87.000 39.417,87.083 39.333,87.417 39.333 C 87.806 39.333,87.833 39.278,87.833 38.500 C 87.833 37.722,87.861 37.667,88.250 37.667 L 88.667 37.667 88.667 34.159 C 88.667 31.450,88.619 30.658,88.458 30.679 C 87.909 30.750,87.833 30.647,87.833 29.833 C 87.833 29.056,87.806 29.000,87.417 29.000 C 87.083 29.000,87.000 28.917,87.000 28.583 C 87.000 28.250,86.917 28.167,86.583 28.167 C 86.250 28.167,86.167 28.083,86.167 27.750 C 86.167 27.417,86.083 27.333,85.750 27.333 C 85.417 27.333,85.333 27.250,85.333 26.917 C 85.333 26.586,85.249 26.500,84.928 26.500 C 84.609 26.500,84.511 26.402,84.469 26.042 C 84.428 25.682,84.318 25.572,83.958 25.531 C 83.598 25.489,83.500 25.391,83.500 25.072 C 83.500 24.697,83.438 24.667,82.667 24.667 C 81.889 24.667,81.833 24.639,81.833 24.250 L 81.833 23.833 78.417 23.833 L 75.000 23.833 75.000 24.250 C 75.000 24.644,74.950 24.667,74.083 24.667 C 73.217 24.667,73.167 24.689,73.167 25.083 C 73.167 25.472,73.111 25.500,72.333 25.500 C 71.519 25.500,71.500 25.511,71.500 26.000 C 71.500 26.422,71.435 26.500,71.083 26.500 C 70.750 26.500,70.667 26.583,70.667 26.917 C 70.667 27.250,70.583 27.333,70.250 27.333 C 69.917 27.333,69.833 27.417,69.833 27.750 C 69.833 28.102,69.756 28.167,69.333 28.167 C 68.911 28.167,68.833 28.231,68.833 28.583 C 68.833 28.917,68.750 29.000,68.417 29.000 C 68.083 29.000,68.000 29.083,68.000 29.417 C 68.000 29.750,67.917 29.833,67.583 29.833 L 67.167 29.833 67.167 27.250 L 67.167 24.667 58.500 24.667 L 49.833 24.667 49.833 43.667 L 49.833 62.667 49.417 62.667 C 49.065 62.667,49.000 62.744,49.000 63.167 C 49.000 63.589,48.935 63.667,48.583 63.667 C 48.194 63.667,48.167 63.722,48.167 64.500 C 48.167 65.315,48.156 65.333,47.667 65.333 C 47.244 65.333,47.167 65.398,47.167 65.750 C 47.167 66.083,47.083 66.167,46.750 66.167 C 46.417 66.167,46.333 66.250,46.333 66.583 C 46.333 66.917,46.250 67.000,45.917 67.000 C 45.565 67.000,45.500 67.078,45.500 67.500 C 45.500 67.989,45.481 68.000,44.667 68.000 C 43.889 68.000,43.833 68.028,43.833 68.417 C 43.833 68.769,43.756 68.833,43.333 68.833 C 42.911 68.833,42.833 68.898,42.833 69.250 C 42.833 69.639,42.778 69.667,42.000 69.667 C 41.222 69.667,41.167 69.694,41.167 70.083 C 41.167 70.493,41.144 70.500,39.833 70.500 C 38.522 70.500,38.500 70.507,38.500 70.917 L 38.500 71.333 34.583 71.333 L 30.667 71.333 30.667 70.917 C 30.667 70.528,30.611 70.500,29.833 70.500 C 29.056 70.500,29.000 70.472,29.000 70.083 C 29.000 69.694,28.944 69.667,28.167 69.667 C 27.389 69.667,27.333 69.639,27.333 69.250 C 27.333 68.898,27.256 68.833,26.833 68.833 C 26.411 68.833,26.333 68.769,26.333 68.417 C 26.333 68.083,26.250 68.000,25.917 68.000 C 25.523 68.000,25.500 67.950,25.500 67.083 C 25.500 66.217,25.477 66.167,25.083 66.167 C 24.676 66.167,24.667 66.139,24.667 64.917 C 24.667 63.694,24.657 63.667,24.250 63.667 L 23.833 63.667 23.833 54.083 L 23.833 44.500 24.250 44.500 L 24.667 44.500 24.667 42.333 L 24.667 40.167 25.083 40.167 C 25.491 40.167,25.500 40.139,25.500 38.917 C 25.500 37.694,25.509 37.667,25.917 37.667 C 26.326 37.667,26.333 37.644,26.333 36.333 L 26.333 35.000 26.833 35.000 C 27.322 35.000,27.333 34.981,27.333 34.167 C 27.333 33.389,27.361 33.333,27.750 33.333 C 28.083 33.333,28.167 33.250,28.167 32.917 C 28.167 32.583,28.250 32.500,28.583 32.500 C 28.935 32.500,29.000 32.422,29.000 32.000 C 29.000 31.511,29.019 31.500,29.833 31.500 C 30.611 31.500,30.667 31.472,30.667 31.083 C 30.667 30.689,30.717 30.667,31.583 30.667 C 32.450 30.667,32.500 30.689,32.500 31.083 C 32.500 31.414,32.584 31.500,32.906 31.500 C 33.224 31.500,33.323 31.598,33.364 31.958 C 33.405 32.318,33.515 32.428,33.875 32.469 C 34.235 32.511,34.333 32.609,34.333 32.928 C 34.333 33.249,34.420 33.333,34.750 33.333 L 35.167 33.333 35.167 38.083 L 35.167 42.833 35.583 42.833 C 35.917 42.833,36.000 42.917,36.000 43.250 L 36.000 43.667 39.417 43.667 L 42.833 43.667 42.833 43.250 C 42.833 42.917,42.917 42.833,43.250 42.833 C 43.580 42.833,43.667 42.749,43.667 42.428 C 43.667 42.109,43.765 42.011,44.125 41.969 C 44.576 41.917,44.584 41.896,44.632 40.625 C 44.679 39.374,44.694 39.333,45.095 39.333 L 45.509 39.333 45.463 36.792 C 45.419 34.376,45.400 34.250,45.083 34.250 C 44.783 34.250,44.745 34.123,44.701 32.958 L 44.653 31.667 44.160 31.667 C 43.673 31.667,43.667 31.655,43.667 30.750 C 43.667 29.883,43.644 29.833,43.250 29.833 C 42.858 29.833,42.673 29.180,42.814 28.292 C 42.824 28.223,42.646 28.167,42.417 28.167 C 42.083 28.167,42.000 28.083,42.000 27.750 C 42.000 27.361,41.944 27.333,41.167 27.333 C 40.389 27.333,40.333 27.306,40.333 26.917 C 40.333 26.565,40.256 26.500,39.833 26.500 C 39.389 26.500,39.333 26.444,39.333 26.000 C 39.333 25.511,39.315 25.500,38.500 25.500 C 37.722 25.500,37.667 25.472,37.667 25.083 C 37.667 24.674,37.644 24.667,36.333 24.667 C 35.022 24.667,35.000 24.660,35.000 24.250 L 35.000 23.833 29.833 23.833 L 24.667 23.833 24.667 24.250 M107.833 24.250 L 107.833 24.667 106.083 24.667 L 104.333 24.667 104.333 25.083 C 104.333 25.472,104.278 25.500,103.500 25.500 C 102.685 25.500,102.667 25.511,102.667 26.000 C 102.667 26.489,102.648 26.500,101.833 26.500 C 101.056 26.500,101.000 26.528,101.000 26.917 C 101.000 27.269,100.922 27.333,100.500 27.333 C 100.078 27.333,100.000 27.398,100.000 27.750 C 100.000 28.083,99.917 28.167,99.583 28.167 C 99.250 28.167,99.167 28.250,99.167 28.583 C 99.167 28.917,99.083 29.000,98.750 29.000 C 98.417 29.000,98.333 29.083,98.333 29.417 C 98.333 29.750,98.250 29.833,97.917 29.833 C 97.583 29.833,97.500 29.917,97.500 30.250 C 97.500 30.583,97.417 30.667,97.083 30.667 C 96.731 30.667,96.667 30.744,96.667 31.167 C 96.667 31.611,96.611 31.667,96.167 31.667 C 95.744 31.667,95.667 31.731,95.667 32.083 C 95.667 32.417,95.583 32.500,95.250 32.500 C 94.861 32.500,94.833 32.556,94.833 33.333 C 94.833 34.111,94.806 34.167,94.417 34.167 C 94.083 34.167,94.000 34.250,94.000 34.583 C 94.000 34.917,93.917 35.000,93.583 35.000 C 93.189 35.000,93.167 35.050,93.167 35.917 C 93.167 36.783,93.144 36.833,92.750 36.833 C 92.343 36.833,92.333 36.862,92.333 38.072 C 92.333 39.300,92.329 39.312,91.875 39.364 C 91.448 39.413,91.413 39.476,91.366 40.292 C 91.320 41.095,91.283 41.167,90.908 41.167 C 90.502 41.167,90.500 41.176,90.500 42.833 L 90.500 44.500 90.083 44.500 L 89.667 44.500 89.667 47.583 L 89.667 50.667 89.250 50.667 L 88.833 50.667 88.833 55.833 L 88.833 61.000 89.250 61.000 L 89.667 61.000 89.667 63.583 L 89.667 66.167 90.083 66.167 C 90.491 66.167,90.500 66.194,90.500 67.417 C 90.500 68.632,90.511 68.667,90.908 68.667 C 91.283 68.667,91.320 68.738,91.366 69.542 C 91.413 70.358,91.448 70.420,91.875 70.469 C 92.306 70.519,92.333 70.571,92.333 71.344 C 92.333 72.110,92.362 72.167,92.750 72.167 C 93.144 72.167,93.167 72.217,93.167 73.083 C 93.167 73.950,93.189 74.000,93.583 74.000 C 93.917 74.000,94.000 74.083,94.000 74.417 C 94.000 74.750,94.083 74.833,94.417 74.833 C 94.750 74.833,94.833 74.917,94.833 75.250 C 94.833 75.583,94.917 75.667,95.250 75.667 C 95.583 75.667,95.667 75.750,95.667 76.083 C 95.667 76.435,95.744 76.500,96.167 76.500 C 96.589 76.500,96.667 76.565,96.667 76.917 C 96.667 77.250,96.750 77.333,97.083 77.333 C 97.417 77.333,97.500 77.417,97.500 77.750 C 97.500 78.139,97.556 78.167,98.333 78.167 C 99.148 78.167,99.167 78.178,99.167 78.667 C 99.167 79.089,99.231 79.167,99.583 79.167 C 99.917 79.167,100.000 79.250,100.000 79.583 C 100.000 79.993,100.022 80.000,101.333 80.000 C 102.644 80.000,102.667 80.007,102.667 80.417 C 102.667 80.826,102.689 80.833,104.000 80.833 C 105.311 80.833,105.333 80.840,105.333 81.250 L 105.333 81.667 111.750 81.667 L 118.167 81.667 118.167 81.250 C 118.167 80.840,118.189 80.833,119.500 80.833 C 120.811 80.833,120.833 80.826,120.833 80.417 C 120.833 80.009,120.861 80.000,122.083 80.000 C 123.306 80.000,123.333 79.991,123.333 79.583 C 123.333 79.250,123.417 79.167,123.750 79.167 C 124.102 79.167,124.167 79.089,124.167 78.667 C 124.167 78.392,124.242 78.167,124.333 78.167 C 124.641 78.167,124.504 77.459,124.125 77.089 C 123.919 76.888,123.623 76.580,123.467 76.403 C 123.311 76.227,123.103 76.008,123.005 75.917 C 122.541 75.482,121.833 74.424,121.833 74.164 C 121.833 74.005,121.720 73.780,121.582 73.665 C 121.443 73.550,121.217 73.068,121.079 72.594 C 120.730 71.394,120.505 71.333,116.363 71.333 L 113.000 71.333 113.000 70.917 C 113.000 70.528,112.944 70.500,112.167 70.500 C 111.389 70.500,111.333 70.472,111.333 70.083 C 111.333 69.689,111.283 69.667,110.417 69.667 C 109.550 69.667,109.500 69.644,109.500 69.250 C 109.500 68.917,109.417 68.833,109.083 68.833 C 108.689 68.833,108.667 68.783,108.667 67.917 C 108.667 67.050,108.644 67.000,108.250 67.000 C 107.861 67.000,107.833 66.944,107.833 66.167 C 107.833 65.389,107.806 65.333,107.417 65.333 L 107.000 65.333 107.000 62.750 L 107.000 60.167 106.500 60.167 C 106.056 60.167,106.000 60.111,106.000 59.667 C 106.000 59.222,106.056 59.167,106.500 59.167 C 106.922 59.167,107.000 59.102,107.000 58.750 L 107.000 58.333 109.167 58.333 L 111.333 58.333 111.333 57.917 C 111.333 57.509,111.361 57.500,112.583 57.500 C 113.800 57.500,113.833 57.489,113.833 57.090 C 113.833 56.695,113.877 56.679,115.125 56.632 C 116.320 56.587,116.421 56.555,116.470 56.208 C 116.517 55.877,116.620 55.833,117.345 55.833 C 118.147 55.833,118.167 55.821,118.167 55.333 C 118.167 54.911,118.231 54.833,118.583 54.833 C 118.917 54.833,119.000 54.750,119.000 54.417 C 119.000 54.023,119.050 54.000,119.917 54.000 C 120.783 54.000,120.833 53.977,120.833 53.583 C 120.833 53.250,120.917 53.167,121.250 53.167 C 121.583 53.167,121.667 53.083,121.667 52.750 C 121.667 52.417,121.750 52.333,122.083 52.333 C 122.417 52.333,122.500 52.250,122.500 51.917 C 122.500 51.583,122.583 51.500,122.917 51.500 C 123.269 51.500,123.333 51.422,123.333 51.000 C 123.333 50.578,123.398 50.500,123.750 50.500 C 124.083 50.500,124.167 50.417,124.167 50.083 C 124.167 49.731,124.244 49.667,124.667 49.667 C 125.156 49.667,125.167 49.648,125.167 48.833 C 125.167 48.056,125.194 48.000,125.583 48.000 C 125.972 48.000,126.000 47.944,126.000 47.167 C 126.000 46.389,126.028 46.333,126.417 46.333 C 126.811 46.333,126.833 46.283,126.833 45.417 C 126.833 44.550,126.856 44.500,127.250 44.500 L 127.667 44.500 127.667 42.333 L 127.667 40.167 128.083 40.167 L 128.500 40.167 128.500 38.083 L 128.500 36.000 128.083 36.000 L 127.667 36.000 127.667 33.833 L 127.667 31.667 127.250 31.667 C 126.856 31.667,126.833 31.617,126.833 30.750 C 126.833 29.883,126.811 29.833,126.417 29.833 C 126.028 29.833,126.000 29.778,126.000 29.000 C 126.000 28.222,125.972 28.167,125.583 28.167 C 125.250 28.167,125.167 28.083,125.167 27.750 C 125.167 27.398,125.089 27.333,124.667 27.333 C 124.244 27.333,124.167 27.269,124.167 26.917 C 124.167 26.528,124.111 26.500,123.333 26.500 C 122.519 26.500,122.500 26.489,122.500 26.000 C 122.500 25.511,122.481 25.500,121.667 25.500 C 120.889 25.500,120.833 25.472,120.833 25.083 C 120.833 24.674,120.811 24.667,119.500 24.667 C 118.189 24.667,118.167 24.660,118.167 24.250 L 118.167 23.833 113.000 23.833 L 107.833 23.833 107.833 24.250 M373.667 30.250 C 373.667 30.639,373.722 30.667,374.500 30.667 C 375.278 30.667,375.333 30.694,375.333 31.083 C 375.333 31.417,375.417 31.500,375.750 31.500 L 376.167 31.500 376.167 33.250 L 376.167 35.000 376.667 35.000 L 377.167 35.000 377.167 36.750 L 377.167 38.500 376.667 38.500 L 376.167 38.500 376.167 40.250 L 376.167 42.000 375.750 42.000 C 375.361 42.000,375.333 42.056,375.333 42.833 C 375.333 43.611,375.306 43.667,374.917 43.667 C 374.523 43.667,374.500 43.717,374.500 44.583 C 374.500 45.450,374.477 45.500,374.083 45.500 C 373.750 45.500,373.667 45.583,373.667 45.917 C 373.667 46.250,373.583 46.333,373.250 46.333 C 372.917 46.333,372.833 46.417,372.833 46.750 C 372.833 47.102,372.756 47.167,372.333 47.167 C 371.915 47.167,371.833 47.233,371.833 47.572 C 371.833 47.865,371.730 47.992,371.458 48.030 C 371.217 48.064,371.064 48.217,371.030 48.458 C 370.992 48.730,370.865 48.833,370.572 48.833 C 370.233 48.833,370.167 48.915,370.167 49.333 C 370.167 49.822,370.148 49.833,369.333 49.833 C 368.556 49.833,368.500 49.861,368.500 50.250 C 368.500 50.660,368.478 50.667,367.167 50.667 C 365.856 50.667,365.833 50.674,365.833 51.083 C 365.833 51.417,365.750 51.500,365.417 51.500 L 365.000 51.500 365.000 48.000 L 365.000 44.500 365.417 44.500 L 365.833 44.500 365.833 42.333 L 365.833 40.167 366.250 40.167 C 366.657 40.167,366.667 40.139,366.667 38.917 C 366.667 37.694,366.676 37.667,367.083 37.667 C 367.493 37.667,367.500 37.644,367.500 36.333 C 367.500 35.022,367.507 35.000,367.917 35.000 C 368.305 35.000,368.333 34.944,368.333 34.178 C 368.333 33.405,368.361 33.352,368.792 33.303 C 369.115 33.265,369.265 33.143,369.302 32.885 C 369.334 32.658,369.491 32.501,369.719 32.469 C 369.976 32.432,370.099 32.282,370.136 31.958 C 370.177 31.598,370.276 31.500,370.594 31.500 C 370.916 31.500,371.000 31.414,371.000 31.083 C 371.000 30.750,371.083 30.667,371.417 30.667 C 371.750 30.667,371.833 30.583,371.833 30.250 C 371.833 29.856,371.883 29.833,372.750 29.833 C 373.617 29.833,373.667 29.856,373.667 30.250 M115.667 31.083 C 115.667 31.417,115.750 31.500,116.083 31.500 C 116.435 31.500,116.500 31.578,116.500 32.000 C 116.500 32.418,116.566 32.500,116.905 32.500 C 117.198 32.500,117.325 32.604,117.363 32.875 C 117.398 33.116,117.551 33.269,117.792 33.303 L 118.167 33.357 118.167 37.678 L 118.167 42.000 117.750 42.000 C 117.343 42.000,117.333 42.028,117.333 43.250 C 117.333 44.472,117.324 44.500,116.917 44.500 C 116.565 44.500,116.500 44.578,116.500 45.000 C 116.500 45.422,116.435 45.500,116.083 45.500 C 115.694 45.500,115.667 45.556,115.667 46.333 C 115.667 47.111,115.639 47.167,115.250 47.167 C 114.920 47.167,114.833 47.251,114.833 47.572 C 114.833 47.891,114.735 47.989,114.375 48.031 C 114.051 48.068,113.901 48.190,113.865 48.448 C 113.832 48.675,113.675 48.832,113.448 48.865 C 113.190 48.901,113.068 49.051,113.031 49.375 C 112.981 49.806,112.929 49.833,112.156 49.833 C 111.390 49.833,111.333 49.862,111.333 50.250 C 111.333 50.644,111.283 50.667,110.417 50.667 C 109.550 50.667,109.500 50.689,109.500 51.083 C 109.500 51.470,108.257 51.698,107.125 51.520 C 107.056 51.509,107.009 51.556,107.020 51.625 C 107.103 52.150,106.968 52.333,106.500 52.333 C 105.984 52.333,105.708 51.527,106.208 51.481 C 106.323 51.470,106.529 51.451,106.667 51.439 C 106.973 51.412,106.957 51.598,106.981 47.708 L 107.000 44.500 107.417 44.500 L 107.833 44.500 107.833 42.333 L 107.833 40.167 108.250 40.167 C 108.657 40.167,108.667 40.139,108.667 38.917 C 108.667 37.694,108.676 37.667,109.083 37.667 C 109.477 37.667,109.500 37.617,109.500 36.750 C 109.500 35.883,109.523 35.833,109.917 35.833 C 110.306 35.833,110.333 35.778,110.333 35.000 C 110.333 34.189,110.347 34.167,110.822 34.167 C 111.232 34.167,111.320 34.092,111.364 33.708 C 111.402 33.379,111.510 33.250,111.750 33.250 C 112.093 33.250,112.115 33.188,112.147 32.125 L 112.167 31.500 113.000 31.500 C 113.778 31.500,113.833 31.472,113.833 31.083 C 113.833 30.689,113.883 30.667,114.750 30.667 C 115.617 30.667,115.667 30.689,115.667 31.083 M164.167 31.083 C 164.167 31.472,164.222 31.500,165.000 31.500 C 165.815 31.500,165.833 31.511,165.833 32.000 C 165.833 32.418,165.899 32.500,166.238 32.500 C 166.532 32.500,166.658 32.604,166.697 32.875 C 166.735 33.144,166.880 33.265,167.208 33.303 L 167.667 33.355 167.667 48.928 L 167.667 64.500 167.167 64.500 C 166.678 64.500,166.667 64.519,166.667 65.333 C 166.667 66.111,166.639 66.167,166.250 66.167 C 165.917 66.167,165.833 66.250,165.833 66.583 C 165.833 66.917,165.750 67.000,165.417 67.000 C 165.065 67.000,165.000 67.078,165.000 67.500 C 165.000 67.989,164.981 68.000,164.167 68.000 C 163.389 68.000,163.333 68.028,163.333 68.417 L 163.333 68.833 160.667 68.833 L 158.000 68.833 158.000 68.417 C 158.000 68.083,157.917 68.000,157.583 68.000 C 157.231 68.000,157.167 67.922,157.167 67.500 C 157.167 67.078,157.102 67.000,156.750 67.000 C 156.417 67.000,156.333 66.917,156.333 66.583 C 156.333 66.231,156.256 66.167,155.833 66.167 C 155.344 66.167,155.333 66.148,155.333 65.333 C 155.333 64.556,155.306 64.500,154.917 64.500 L 154.500 64.500 154.500 62.750 L 154.500 61.000 154.083 61.000 L 153.667 61.000 153.667 53.667 L 153.667 46.333 154.083 46.333 L 154.500 46.333 154.500 44.167 L 154.500 42.000 154.917 42.000 L 155.333 42.000 155.333 40.250 L 155.333 38.500 155.833 38.500 C 156.328 38.500,156.333 38.491,156.333 37.583 C 156.333 36.717,156.356 36.667,156.750 36.667 C 157.139 36.667,157.167 36.611,157.167 35.833 C 157.167 35.056,157.194 35.000,157.583 35.000 C 157.917 35.000,158.000 34.917,158.000 34.583 C 158.000 34.250,158.083 34.167,158.417 34.167 C 158.805 34.167,158.833 34.111,158.833 33.342 L 158.833 32.517 159.708 32.467 C 160.524 32.420,160.587 32.386,160.636 31.958 C 160.686 31.527,160.738 31.500,161.511 31.500 C 162.277 31.500,162.333 31.471,162.333 31.083 C 162.333 30.689,162.383 30.667,163.250 30.667 C 164.117 30.667,164.167 30.689,164.167 31.083 M221.333 32.917 C 221.333 33.250,221.417 33.333,221.750 33.333 C 222.083 33.333,222.167 33.417,222.167 33.750 C 222.167 34.083,222.250 34.167,222.583 34.167 C 222.917 34.167,223.000 34.250,223.000 34.583 C 223.000 34.917,223.083 35.000,223.417 35.000 C 223.750 35.000,223.833 35.083,223.833 35.417 C 223.833 35.748,223.917 35.833,224.241 35.833 C 224.616 35.833,224.653 35.905,224.700 36.708 C 224.747 37.524,224.781 37.587,225.208 37.636 C 225.662 37.688,225.667 37.700,225.667 38.928 C 225.667 40.138,225.676 40.167,226.083 40.167 L 226.500 40.167 226.500 43.667 L 226.500 47.167 226.917 47.167 L 227.333 47.167 227.333 49.333 L 227.333 51.500 226.917 51.500 L 226.500 51.500 226.500 55.417 L 226.500 59.333 226.083 59.333 C 225.676 59.333,225.667 59.362,225.667 60.572 C 225.667 61.800,225.662 61.812,225.208 61.864 C 224.757 61.916,224.749 61.937,224.701 63.208 C 224.654 64.456,224.639 64.500,224.243 64.500 C 223.863 64.500,223.833 64.559,223.833 65.333 C 223.833 66.111,223.806 66.167,223.417 66.167 C 223.083 66.167,223.000 66.250,223.000 66.583 C 223.000 66.917,222.917 67.000,222.583 67.000 C 222.231 67.000,222.167 67.078,222.167 67.500 C 222.167 67.922,222.102 68.000,221.750 68.000 C 221.417 68.000,221.333 68.083,221.333 68.417 C 221.333 68.769,221.256 68.833,220.833 68.833 C 220.411 68.833,220.333 68.898,220.333 69.250 C 220.333 69.657,220.306 69.667,219.083 69.667 C 217.861 69.667,217.833 69.676,217.833 70.083 C 217.833 70.477,217.783 70.500,216.917 70.500 C 216.050 70.500,216.000 70.477,216.000 70.083 C 216.000 69.694,215.944 69.667,215.167 69.667 C 214.389 69.667,214.333 69.639,214.333 69.250 C 214.333 68.917,214.250 68.833,213.917 68.833 C 213.583 68.833,213.500 68.750,213.500 68.417 C 213.500 68.065,213.422 68.000,213.000 68.000 L 212.500 68.000 212.500 52.333 L 212.500 36.667 213.000 36.667 C 213.489 36.667,213.500 36.648,213.500 35.833 C 213.500 35.056,213.528 35.000,213.917 35.000 C 214.250 35.000,214.333 34.917,214.333 34.583 C 214.333 34.250,214.417 34.167,214.750 34.167 C 215.083 34.167,215.167 34.083,215.167 33.750 C 215.167 33.417,215.250 33.333,215.583 33.333 C 215.917 33.333,216.000 33.250,216.000 32.917 L 216.000 32.500 218.667 32.500 L 221.333 32.500 221.333 32.917 " stroke="none" fill="#ffffff" fill-rule="evenodd"></path><path id="path1" d="" stroke="none" fill="#ff0000" fill-rule="evenodd"></path><path id="path2" d="M128.127 57.974 C 128.197 58.448,127.484 59.000,126.804 59.000 C 126.677 59.000,126.446 59.150,126.289 59.333 C 125.986 59.687,125.422 59.778,125.250 59.500 C 125.020 59.128,124.333 59.315,124.333 59.750 C 124.333 60.083,124.250 60.167,123.917 60.167 C 123.524 60.167,123.500 60.218,123.500 61.066 C 123.500 61.711,123.429 61.991,123.250 62.060 C 123.112 62.113,123.000 62.298,123.000 62.472 C 123.000 62.646,122.864 62.967,122.698 63.186 C 122.532 63.404,122.263 63.940,122.101 64.375 C 121.836 65.085,121.752 65.168,121.278 65.178 C 120.855 65.188,120.815 65.215,121.076 65.318 C 121.383 65.438,121.403 65.625,121.410 68.431 C 121.417 71.317,121.433 71.451,121.875 72.453 C 122.127 73.023,122.333 73.602,122.333 73.739 C 122.333 73.876,122.483 74.069,122.667 74.167 C 122.850 74.265,123.000 74.456,123.000 74.592 C 123.000 74.927,125.634 77.551,126.225 77.804 C 126.486 77.916,126.734 78.139,126.776 78.299 C 126.831 78.511,127.022 78.591,127.468 78.591 C 128.495 78.591,129.167 78.959,129.167 79.520 C 129.167 80.069,129.418 80.165,129.548 79.667 C 129.629 79.359,129.776 79.333,131.486 79.333 C 133.130 79.333,133.368 79.370,133.622 79.667 C 133.899 79.990,134.782 80.154,134.592 79.847 C 134.341 79.441,134.824 78.879,135.611 78.660 C 136.456 78.425,138.064 77.638,138.497 77.250 C 139.410 76.428,141.000 74.727,141.000 74.572 C 141.000 74.469,141.150 74.249,141.333 74.083 C 141.517 73.917,141.667 73.712,141.667 73.627 C 141.667 73.542,141.892 72.910,142.167 72.224 C 142.773 70.708,142.918 66.731,142.402 65.750 C 142.257 65.475,142.025 64.912,141.886 64.500 C 141.747 64.087,141.491 63.595,141.317 63.406 C 141.142 63.217,141.000 62.967,141.000 62.851 C 141.000 62.588,138.318 59.833,138.062 59.833 C 137.959 59.833,137.774 59.713,137.652 59.566 C 137.530 59.419,137.025 59.119,136.529 58.900 C 135.688 58.528,135.633 58.468,135.702 58.001 C 135.781 57.465,135.590 57.303,135.461 57.796 C 135.351 58.217,129.046 58.183,128.737 57.760 C 128.410 57.313,128.049 57.440,128.127 57.974 " stroke="none" fill="#ff3127" fill-rule="evenodd"></path><path id="path3" d="M129.956 57.067 C 130.042 57.519,129.581 57.768,129.000 57.583 C 128.657 57.474,128.533 57.731,128.837 57.919 C 129.273 58.189,135.411 58.090,135.464 57.813 C 135.504 57.606,135.418 57.562,135.094 57.624 C 134.314 57.773,133.788 57.536,133.876 57.076 L 133.954 56.667 131.917 56.667 L 129.880 56.667 129.956 57.067 M127.137 57.948 C 127.085 58.398,127.048 58.417,126.167 58.417 L 125.250 58.417 125.250 59.000 C 125.250 59.714,125.805 59.899,126.280 59.344 C 126.442 59.155,126.677 59.000,126.804 59.000 C 127.931 59.000,128.695 57.654,127.637 57.532 C 127.257 57.488,127.183 57.549,127.137 57.948 M135.778 57.611 C 135.384 58.005,135.697 58.532,136.548 58.908 C 137.033 59.123,137.530 59.419,137.652 59.566 C 137.774 59.713,137.959 59.833,138.062 59.833 C 138.318 59.833,141.000 62.588,141.000 62.851 C 141.000 62.967,141.142 63.217,141.317 63.406 C 141.491 63.595,141.747 64.087,141.886 64.500 C 142.025 64.912,142.257 65.475,142.402 65.750 C 142.918 66.731,142.773 70.708,142.167 72.224 C 141.892 72.910,141.667 73.542,141.667 73.627 C 141.667 73.712,141.517 73.917,141.333 74.083 C 141.150 74.249,141.000 74.469,141.000 74.572 C 141.000 74.727,139.410 76.428,138.497 77.250 C 138.064 77.638,136.456 78.425,135.611 78.660 C 134.317 79.020,134.110 80.000,135.328 80.000 C 135.902 80.000,135.959 79.962,135.875 79.642 C 135.738 79.118,136.215 78.823,136.885 79.015 C 137.639 79.231,137.667 79.219,137.667 78.684 C 137.667 78.194,137.907 78.000,138.514 78.000 C 138.722 78.000,138.833 77.884,138.833 77.667 C 138.833 77.374,138.944 77.333,139.750 77.333 C 140.606 77.333,140.667 77.307,140.667 76.934 C 140.667 76.556,141.054 76.244,141.321 76.409 C 141.389 76.451,141.444 76.380,141.444 76.252 C 141.444 76.080,141.366 76.060,141.150 76.176 C 140.728 76.401,140.667 76.376,140.667 75.981 C 140.667 75.702,140.748 75.643,141.050 75.701 C 141.385 75.765,141.425 75.717,141.368 75.325 C 141.325 75.032,141.415 74.767,141.627 74.563 C 141.806 74.391,142.007 74.028,142.072 73.756 C 142.137 73.484,142.329 72.958,142.499 72.586 C 143.111 71.242,143.252 66.907,142.732 65.399 C 141.828 62.773,139.439 59.943,137.024 58.633 C 136.648 58.429,136.500 58.229,136.500 57.924 C 136.500 57.514,136.064 57.325,135.778 57.611 M122.571 61.407 C 122.509 61.655,122.328 61.834,122.109 61.865 C 121.783 61.912,121.750 62.017,121.750 63.000 C 121.750 64.058,121.739 64.085,121.292 64.136 C 120.584 64.218,120.609 65.167,121.320 65.167 C 121.747 65.167,121.841 65.071,122.101 64.375 C 122.263 63.940,122.532 63.404,122.698 63.186 C 122.864 62.967,123.000 62.646,123.000 62.472 C 123.000 62.298,123.112 62.113,123.250 62.060 C 123.393 62.006,123.500 61.757,123.500 61.482 C 123.500 60.831,122.731 60.769,122.571 61.407 M120.915 65.661 C 121.166 66.452,120.841 67.675,120.401 67.595 C 120.008 67.524,120.000 67.547,120.000 68.697 C 120.000 69.845,120.009 69.870,120.396 69.796 C 120.766 69.726,120.805 69.790,120.965 70.756 C 121.296 72.757,122.421 74.852,124.069 76.534 C 124.585 77.062,125.000 77.637,125.000 77.826 C 125.000 78.104,125.107 78.167,125.583 78.167 C 126.119 78.167,126.167 78.207,126.167 78.663 C 126.167 79.155,126.174 79.159,127.042 79.121 C 127.896 79.084,127.917 79.094,127.910 79.542 C 127.904 79.962,127.956 80.000,128.535 80.000 C 129.120 80.000,129.167 79.964,129.167 79.520 C 129.167 78.959,128.495 78.591,127.468 78.591 C 127.022 78.591,126.831 78.511,126.776 78.299 C 126.734 78.139,126.486 77.916,126.225 77.804 C 125.634 77.551,123.000 74.927,123.000 74.592 C 123.000 74.456,122.850 74.265,122.667 74.167 C 122.483 74.069,122.333 73.876,122.333 73.739 C 122.333 73.602,122.127 73.023,121.875 72.453 C 121.433 71.451,121.417 71.318,121.410 68.418 C 121.403 65.663,121.378 65.414,121.102 65.361 C 120.862 65.314,120.824 65.375,120.915 65.661 M129.611 79.444 C 129.229 79.826,129.622 79.917,131.667 79.917 C 132.858 79.917,133.833 79.903,133.833 79.887 C 133.833 79.418,130.036 79.020,129.611 79.444 " stroke="none" fill="#ed7b72" fill-rule="evenodd"></path><path id="path4" d="M128.667 57.062 C 128.667 57.527,129.117 57.758,129.676 57.580 C 130.299 57.383,130.027 56.759,129.292 56.698 C 128.723 56.651,128.667 56.684,128.667 57.062 M133.952 56.770 C 133.690 57.033,133.848 57.497,134.233 57.594 C 134.977 57.781,135.417 57.622,135.417 57.167 C 135.417 56.747,134.283 56.440,133.952 56.770 M126.078 57.850 C 125.937 58.294,126.183 58.544,126.689 58.472 C 126.978 58.432,127.097 58.294,127.136 57.958 C 127.205 57.356,126.265 57.260,126.078 57.850 M136.506 57.966 C 136.502 58.227,136.666 58.439,137.024 58.633 C 139.439 59.943,141.828 62.773,142.732 65.399 C 143.252 66.907,143.111 71.242,142.499 72.586 C 142.329 72.958,142.137 73.484,142.072 73.756 C 142.007 74.028,141.814 74.384,141.643 74.548 C 141.097 75.073,141.230 75.698,141.875 75.636 L 142.417 75.583 142.370 74.711 C 142.338 74.102,142.422 73.647,142.649 73.202 C 143.645 71.250,143.663 65.716,142.679 64.330 C 142.514 64.099,142.322 63.724,142.251 63.497 C 142.179 63.269,141.944 62.871,141.727 62.612 C 141.511 62.353,141.333 62.085,141.333 62.017 C 141.333 61.646,137.856 58.500,137.447 58.500 C 137.345 58.500,137.094 58.294,136.887 58.042 C 136.517 57.589,136.512 57.588,136.506 57.966 M120.944 62.778 C 120.574 63.148,120.840 64.188,121.292 64.136 C 121.951 64.060,122.105 62.667,121.454 62.667 C 121.235 62.667,121.006 62.717,120.944 62.778 M120.034 66.442 C 120.101 67.940,120.726 68.222,120.916 66.840 C 121.065 65.754,120.920 65.333,120.398 65.333 C 119.995 65.333,119.986 65.360,120.034 66.442 M120.375 69.803 C 119.783 69.887,119.814 71.447,120.410 71.596 C 120.731 71.677,120.874 71.888,121.075 72.578 C 121.215 73.061,121.443 73.550,121.582 73.665 C 121.720 73.780,121.833 74.005,121.833 74.164 C 121.833 74.424,122.541 75.482,123.005 75.917 C 123.103 76.008,123.311 76.227,123.467 76.403 C 123.623 76.580,123.919 76.888,124.125 77.089 C 124.331 77.290,124.500 77.615,124.500 77.811 C 124.500 78.016,124.606 78.167,124.750 78.167 C 125.268 78.167,124.972 77.457,124.069 76.534 C 122.444 74.875,121.353 72.865,120.951 70.790 C 120.770 69.854,120.712 69.755,120.375 69.803 M140.667 75.971 C 140.667 76.299,141.078 76.574,141.334 76.417 C 141.598 76.253,141.383 75.749,141.027 75.697 C 140.762 75.658,140.667 75.730,140.667 75.971 M138.833 77.667 C 138.833 77.884,138.722 78.000,138.514 78.000 C 137.907 78.000,137.667 78.194,137.667 78.684 C 137.667 79.101,137.730 79.167,138.133 79.167 C 138.665 79.167,139.000 78.900,139.000 78.478 C 139.000 78.306,139.151 78.168,139.375 78.137 C 140.012 78.046,139.986 77.333,139.345 77.333 C 138.944 77.333,138.833 77.406,138.833 77.667 M125.197 78.625 C 125.281 79.351,126.167 79.399,126.167 78.678 C 126.167 78.219,126.115 78.167,125.656 78.167 C 125.196 78.167,125.150 78.213,125.197 78.625 M136.065 79.076 C 135.587 79.426,135.846 79.911,136.543 79.968 C 137.134 80.017,137.167 79.994,137.167 79.529 C 137.167 78.973,136.552 78.720,136.065 79.076 M127.115 79.115 C 126.579 79.257,126.827 79.917,127.417 79.917 C 127.838 79.917,127.917 79.852,127.917 79.502 C 127.917 79.079,127.681 78.965,127.115 79.115 M129.692 79.981 C 129.568 80.059,129.494 80.264,129.528 80.437 C 129.620 80.918,133.713 80.918,133.806 80.437 C 133.901 79.941,133.535 79.838,131.667 79.838 C 130.704 79.838,129.816 79.903,129.692 79.981 " stroke="none" fill="#dcbdbd" fill-rule="evenodd"></path></g></svg>